<svg id="IMAGE" xmlns="http://www.w3.org/2000/svg" viewBox="0 0 161.52 162.7"><defs><style>.cls-1{fill:none;stroke:#016d78;stroke-miterlimit:10;stroke-width:3px;}</style></defs><title>coop-remit logo</title><g id="HANDS"><path class="cls-1" d="M84.37,21.1a5,5,0,1,1,7-7l14.84,14.85c4.28,4.28,9.13,10.22,11.11,16.15s16.15,17.48,16.15,17.48" transform="translate(-4.41 -4.11)"/><path class="cls-1" d="M91.07,27.8l-1.49-1.5L86.25,23,84.37,21.1l-6.49-6.49c-4.72-4.72-11.76,2.31-7,7" transform="translate(-4.41 -4.11)"/><path class="cls-1" d="M84.27,35.06l-4.94-4.93L77,27.76l-6.12-6.12-4.73-4.72c-4.72-4.72-11.31,2.3-6.8,6.81l5.93,5.93" transform="translate(-4.41 -4.11)"/><path class="cls-1" d="M77.56,42l-3.8-3.81-3.63-3.63-4.88-4.88c-6.26-6.26-12.86,1-6.93,6.93l13,13" transform="translate(-4.41 -4.11)"/><path class="cls-1" d="M78.77,57l-7.41-7.41c-4.24-4.24-11,2.77-6.85,6.86s3.34,3.7,9.09,9.1a10.28,10.28,0,0,0,1.8,1.31C82.22,70.83,96,70.16,96,70.16l10,10" transform="translate(-4.41 -4.11)"/><path class="cls-1" d="M18,86.89a5,5,0,1,1-7-7L25.78,65C30.06,60.72,36,55.88,41.93,53.9S59.4,37.75,59.4,37.75" transform="translate(-4.41 -4.11)"/><path class="cls-1" d="M24.68,80.18l-1.5,1.49L19.85,85,18,86.89l-6.48,6.48c-4.73,4.73,2.3,11.76,7,7" transform="translate(-4.41 -4.11)"/><path class="cls-1" d="M31.93,87,27,91.93l-2.37,2.36-6.11,6.11-4.73,4.73c-4.72,4.73,2.31,11.32,6.82,6.82L26.54,106" transform="translate(-4.41 -4.11)"/><path class="cls-1" d="M38.85,93.7l-3.8,3.81-3.63,3.62L26.54,106c-6.26,6.26,1,12.86,6.92,6.92l13-13.05" transform="translate(-4.41 -4.11)"/><path class="cls-1" d="M53.91,92.49l-7.4,7.39c-4.25,4.26,2.76,11,6.86,6.86s3.7-3.34,9.09-9.08a14.21,14.21,0,0,0,2.86-5.52C67.5,85,67,75.27,67,75.27L75.4,66.9" transform="translate(-4.41 -4.11)"/><path class="cls-1" d="M37.26,109.21s14.19,11.54,16.16,17.48,6.81,11.87,11.1,16.16l14.84,14.84a5,5,0,1,0,7-7" transform="translate(-4.41 -4.11)"/><path class="cls-1" d="M79.69,144l1.5,1.5,3.32,3.32,1.88,1.88,6.49,6.49c4.73,4.72,11.76-2.31,7-7" transform="translate(-4.41 -4.11)"/><path class="cls-1" d="M86.51,136.7l4.93,4.93L93.81,144l6.11,6.12,4.72,4.72c4.73,4.73,11.33-2.31,6.82-6.82l-5.94-5.93" transform="translate(-4.41 -4.11)"/><path class="cls-1" d="M93.21,129.77l7.43,7.43,4.88,4.88c6.27,6.27,12.87-1,6.93-6.93l-13-13" transform="translate(-4.41 -4.11)"/><path class="cls-1" d="M92,114.7l7.41,7.41c4.25,4.24,11-2.75,6.85-6.85s-3.33-3.71-9.09-9.09a9.31,9.31,0,0,0-1.82-1.31c-6.81-4-20.57-3.27-20.57-3.27l-9.46-9.45" transform="translate(-4.41 -4.11)"/><path class="cls-1" d="M153.68,84a5,5,0,1,1,7,7l-14.83,14.83c-4.3,4.3-10.22,9.13-16.16,11.11s-17.48,16.17-17.48,16.17" transform="translate(-4.41 -4.11)"/><path class="cls-1" d="M147,90.69l1.49-1.5,3.32-3.32L153.68,84l6.49-6.49c4.72-4.72-2.32-11.75-7-7" transform="translate(-4.41 -4.11)"/><path class="cls-1" d="M139.72,83.87l4.93-4.93L147,76.57l6.11-6.11,4.72-4.72c4.73-4.73-2.3-11.33-6.81-6.82l-5.94,5.94" transform="translate(-4.41 -4.11)"/><path class="cls-1" d="M132.79,77.17l7.43-7.43,4.88-4.88c6.27-6.27-1-12.86-6.92-6.92l-13,13" transform="translate(-4.41 -4.11)"/><path class="cls-1" d="M117.74,78.38l7.4-7.4c4.25-4.25-2.75-11-6.86-6.86s-3.69,3.34-9.08,9.08a15.89,15.89,0,0,0-3.26,6.91,62.25,62.25,0,0,0-1.33,15.49l-9.26,9.26" transform="translate(-4.41 -4.11)"/><line class="cls-1" x1="105.28" y1="28.49" x2="132.71" y2="1.06"/><line class="cls-1" x1="56.53" y1="135.16" x2="30.05" y2="161.64"/><line class="cls-1" x1="27.57" y1="54.68" x2="1.06" y2="28.17"/><line class="cls-1" x1="133.82" y1="108.29" x2="160.46" y2="134.93"/></g></svg>