<svg id="Layer_1" data-name="Layer 1" xmlns="http://www.w3.org/2000/svg" viewBox="0 0 336.22 120.87"><defs><style>.cls-1{fill:#016d78;}.cls-2{fill:none;stroke:#fff;stroke-miterlimit:10;stroke-width:3px;}</style></defs><title>coop-remit logo (full)</title><path class="cls-1" d="M187,136.77h-9.18l-13-18.89H159.2v18.89h-7.56V91.42h19.53a13.24,13.24,0,0,1,2.64,26.2Zm-15.82-26.45a5.67,5.67,0,1,0,0-11.34h-12v11.34Z" transform="translate(-0.78 -27.44)"/><path class="cls-1" d="M204.42,99v11.34H222v7.56H204.42v11.32h20.69v7.56H196.86V91.42h28.25V99Z" transform="translate(-0.78 -27.44)"/><path class="cls-1" d="M276.55,91.42v45.35H269V116.65l-13.24,20.09-13.22-20.09v20.12H235V91.42L255.75,123Z" transform="translate(-0.78 -27.44)"/><path class="cls-1" d="M286.45,136.77V91.42H294v45.35Z" transform="translate(-0.78 -27.44)"/><path class="cls-1" d="M331.64,91.42V99H321.56v37.78H314V99H303.92V91.42Z" transform="translate(-0.78 -27.44)"/><path class="cls-1" d="M187.85,78.09a22.68,22.68,0,1,1-.07-32.93l-5.19,5.5a15.11,15.11,0,1,0,0,22Z" transform="translate(-0.78 -27.44)"/><path class="cls-1" d="M240,61.66A22.68,22.68,0,1,1,217.35,39,22.68,22.68,0,0,1,240,61.66Zm-7.56,0a15.12,15.12,0,1,0-15.12,15.13A15.12,15.12,0,0,0,232.47,61.66Z" transform="translate(-0.78 -27.44)"/><path class="cls-1" d="M295.51,61.66A22.68,22.68,0,1,1,272.83,39,22.68,22.68,0,0,1,295.51,61.66Zm-7.56,0a15.12,15.12,0,1,0-15.12,15.13A15.12,15.12,0,0,0,288,61.66Z" transform="translate(-0.78 -27.44)"/><path class="cls-1" d="M324.06,39a13.23,13.23,0,0,1,0,26.46h-12V84.33h-7.56V39Zm5.48,13.23a5.67,5.67,0,0,0-5.48-5.67h-12V57.87h12A5.66,5.66,0,0,0,329.54,52.21Z" transform="translate(-0.78 -27.44)"/><rect class="cls-1" width="129.33" height="120.87" rx="7.52" ry="7.52"/><g id="HANDS"><path class="cls-2" d="M65.12,49a3.2,3.2,0,1,1,4.52-4.52L79.17,54c2.75,2.75,5.86,6.56,7.13,10.38S96.67,75.61,96.67,75.61" transform="translate(-0.78 -27.44)"/><path class="cls-2" d="M69.42,53.3l-1-1-2.13-2.13L65.12,49,61,44.83c-3-3-7.55,1.49-4.51,4.52" transform="translate(-0.78 -27.44)"/><path class="cls-2" d="M65.05,58,61.89,54.8l-1.52-1.52-3.93-3.93-3-3c-3-3-7.26,1.47-4.37,4.37l3.82,3.81" transform="translate(-0.78 -27.44)"/><path class="cls-2" d="M60.75,62.4,58.31,60,56,57.63,52.85,54.5c-4-4-8.27.64-4.45,4.45l8.37,8.37" transform="translate(-0.78 -27.44)"/><path class="cls-2" d="M61.52,72.08l-4.75-4.76c-2.73-2.73-7,1.77-4.4,4.41s2.14,2.37,5.83,5.83a6.31,6.31,0,0,0,1.16.85c4.38,2.52,13.22,2.09,13.22,2.09L79,86.89" transform="translate(-0.78 -27.44)"/><path class="cls-2" d="M22.48,91.24A3.2,3.2,0,1,1,18,86.72l9.53-9.53c2.75-2.75,6.56-5.86,10.37-7.13S49.09,59.69,49.09,59.69" transform="translate(-0.78 -27.44)"/><path class="cls-2" d="M26.79,86.93l-1,1L23.69,90l-1.21,1.21L18.32,95.4c-3,3,1.48,7.56,4.52,4.52" transform="translate(-0.78 -27.44)"/><path class="cls-2" d="M31.45,91.31l-3.17,3.17L26.76,96l-3.92,3.93-3,3c-3,3,1.49,7.26,4.38,4.37L28,103.52" transform="translate(-0.78 -27.44)"/><path class="cls-2" d="M35.89,95.62l-2.44,2.44-2.33,2.33L28,103.52c-4,4,.63,8.26,4.44,4.45l8.38-8.38" transform="translate(-0.78 -27.44)"/><path class="cls-2" d="M45.56,94.84l-4.75,4.75c-2.73,2.73,1.77,7,4.41,4.4s2.37-2.15,5.83-5.83a9.11,9.11,0,0,0,1.84-3.55A38.24,38.24,0,0,0,54,83.78l5.37-5.37" transform="translate(-0.78 -27.44)"/><path class="cls-2" d="M34.87,105.57S44,113,45.25,116.8s4.37,7.62,7.13,10.37l9.52,9.53a3.2,3.2,0,1,0,4.52-4.52" transform="translate(-0.78 -27.44)"/><path class="cls-2" d="M62.12,127.88l1,1L65.21,131l1.21,1.21,4.17,4.17c3,3,7.55-1.48,4.51-4.52" transform="translate(-0.78 -27.44)"/><path class="cls-2" d="M66.49,123.22l3.17,3.17,1.52,1.52,3.92,3.92,3,3c3,3,7.27-1.48,4.37-4.38l-3.81-3.81" transform="translate(-0.78 -27.44)"/><path class="cls-2" d="M70.8,118.77l4.77,4.77,3.13,3.14c4,4,8.26-.64,4.45-4.45l-8.37-8.38" transform="translate(-0.78 -27.44)"/><path class="cls-2" d="M70,109.1l4.76,4.75c2.72,2.73,7-1.76,4.39-4.39s-2.14-2.38-5.83-5.84a6.48,6.48,0,0,0-1.17-.84c-4.37-2.53-13.21-2.1-13.21-2.1l-6.07-6.07" transform="translate(-0.78 -27.44)"/><path class="cls-2" d="M109.62,89.38a3.2,3.2,0,1,1,4.52,4.51l-9.53,9.53c-2.75,2.76-6.56,5.86-10.37,7.13S83,120.93,83,120.93" transform="translate(-0.78 -27.44)"/><path class="cls-2" d="M105.32,93.68l1-1,2.13-2.13,1.21-1.21,4.17-4.17c3-3-1.49-7.55-4.52-4.52" transform="translate(-0.78 -27.44)"/><path class="cls-2" d="M100.66,89.3l3.17-3.16,1.52-1.52,3.92-3.93,3-3c3-3-1.48-7.27-4.37-4.38l-3.81,3.82" transform="translate(-0.78 -27.44)"/><path class="cls-2" d="M96.21,85,101,80.23l3.14-3.13c4-4-.64-8.26-4.45-4.45L91.3,81" transform="translate(-0.78 -27.44)"/><path class="cls-2" d="M86.54,85.78,91.3,81c2.72-2.73-1.77-7-4.41-4.41s-2.37,2.15-5.83,5.83A10.2,10.2,0,0,0,79,86.89a40.1,40.1,0,0,0-.85,10l-6,5.94" transform="translate(-0.78 -27.44)"/><line class="cls-2" x1="80.59" y1="28.95" x2="98.21" y2="11.33"/><line class="cls-2" x1="49.29" y1="97.43" x2="32.29" y2="114.44"/><line class="cls-2" x1="30.7" y1="45.76" x2="13.68" y2="28.74"/><line class="cls-2" x1="98.92" y1="80.18" x2="116.03" y2="97.29"/></g></svg>